<svg width="99" height="37" viewBox="0 0 99 37" fill="none" xmlns="http://www.w3.org/2000/svg">
<path d="M59.5474 4.5925C60.4437 5.12549 61.2119 5.84922 61.7972 6.71235L64.38 1.44116L59.5474 4.5925Z" fill="#D2752E"/>
<path d="M52.1235 16.3289L33.4429 36.4308C33.4429 36.4308 37.2683 33.182 39.8511 34.8064C41.8004 36.0572 43.303 32.6297 44.6512 30.7454C46.2757 28.4225 51.4169 19.5533 53.0088 16.7918C52.7017 16.6617 52.4056 16.5068 52.1235 16.3289Z" fill="#D97A2D"/>
<path d="M50.6946 14.9725C49.6387 15.671 47.5432 17.003 44.5624 18.7087C41.5817 20.4143 38.3166 21.0559 39.6324 24.256C40.6476 26.6926 38.7715 28.8449 38.2598 29.3729L51.6611 15.9228C51.2981 15.6505 50.973 15.3309 50.6946 14.9725Z" fill="#C1E0E0"/>
<path d="M43.1896 4.75497C42.2451 4.72751 41.3086 4.93592 40.4648 5.36135C39.621 5.78678 38.8966 6.41582 38.357 7.19157V4.59253L37.3418 5.45346V19.8051L38.3895 18.936V14.2252C39.1444 15.2218 40.1917 15.9578 41.3851 16.3304C42.5785 16.703 43.8584 16.6937 45.0462 16.3037C46.2341 15.9137 47.2705 15.1625 48.0108 14.1551C48.7511 13.1476 49.1583 11.9341 49.1756 10.684C49.1913 9.89627 49.0468 9.11352 48.7508 8.3833C48.4549 7.65308 48.0136 6.99062 47.4538 6.43614C46.894 5.88166 46.2273 5.44672 45.4943 5.15772C44.7613 4.86873 43.9772 4.7317 43.1896 4.75497ZM43.1896 15.5979C42.5432 15.609 41.9011 15.4893 41.3021 15.2457C40.7032 15.0022 40.1597 14.64 39.7044 14.1809C39.2491 13.7218 38.8914 13.1754 38.6529 12.5744C38.4143 11.9734 38.2999 11.3304 38.3164 10.684C38.3164 9.39158 38.8299 8.15206 39.7438 7.23816C40.6577 6.32426 41.8972 5.81083 43.1896 5.81083C44.4821 5.81083 45.7216 6.32426 46.6355 7.23816C47.5494 8.15206 48.0629 9.39158 48.0629 10.684C48.0782 11.3301 47.963 11.9726 47.7241 12.5731C47.4851 13.1735 47.1274 13.7195 46.6723 14.1784C46.2173 14.6373 45.6743 14.9995 45.0758 15.2434C44.4774 15.4873 43.8358 15.6079 43.1896 15.5979Z" fill="white"/>
<path d="M11.5787 0.896973H10.1167L1.9947 9.14894V0.896973L0.955078 1.75791V16.2638H1.9947V10.5947L4.95923 7.60576L11.1726 16.2638H12.464L5.69021 6.85041L11.5787 0.896973Z" fill="white"/>
<path d="M56.0715 4.51929C54.5174 4.57442 53.0481 5.24119 51.9832 6.37445C50.9184 7.50772 50.3444 9.01572 50.3861 10.5702C50.3446 11.3489 50.4622 12.1279 50.7316 12.8596C51.0011 13.5914 51.4167 14.2606 51.9533 14.8265C52.4898 15.3923 53.136 15.843 53.8524 16.151C54.5688 16.4589 55.3404 16.6178 56.1202 16.6178C56.9 16.6178 57.6716 16.4589 58.388 16.151C59.1044 15.843 59.7506 15.3923 60.2871 14.8265C60.8237 14.2606 61.2393 13.5914 61.5088 12.8596C61.7782 12.1279 61.8958 11.3489 61.8543 10.5702C61.8936 9.00677 61.3111 7.49162 60.2346 6.35721C59.158 5.22281 57.6754 4.56182 56.1121 4.51929H56.0715ZM56.1121 15.5327C54.8367 15.484 53.6313 14.9369 52.7549 14.009C51.8786 13.081 51.4013 11.8463 51.4257 10.5702C51.3792 9.92689 51.4659 9.28093 51.6801 8.67259C51.8944 8.06425 52.2317 7.50659 52.6711 7.0344C53.1104 6.5622 53.6423 6.1856 54.2337 5.92809C54.825 5.67057 55.463 5.53767 56.108 5.53767C56.753 5.53767 57.391 5.67057 57.9824 5.92809C58.5737 6.1856 59.1056 6.5622 59.545 7.0344C59.9843 7.50659 60.3216 8.06425 60.5359 8.67259C60.7502 9.28093 60.8368 9.92689 60.7903 10.5702C60.8102 11.8489 60.3265 13.0842 59.4437 14.0096C58.5609 14.9349 57.3497 15.4761 56.0715 15.5165" fill="white"/>
<path d="M13.731 16.2639H14.7706V4.51135L13.731 5.37229V16.2639Z" fill="white"/>
<path d="M24.233 16.2638V4.51942L23.2421 4.5113L23.2178 4.50317L23.2097 4.5113H23.1934V4.53566L13.7231 16.3126L14.7384 16.2963L23.1934 5.84331V16.2638H24.233Z" fill="white"/>
<path d="M86.4152 16.2638V4.51942L85.4243 4.5113L85.3999 4.50317L85.3918 4.5113H85.3755V4.52754L76.9449 15.0131V4.5113L75.9134 5.37223V16.2638H75.9459L75.9053 16.3126L76.9205 16.2963L76.9449 16.2638L85.3755 5.84331V16.2638H86.4152Z" fill="white"/>
<path d="M35.92 4.51135H25.4102V5.37229V5.54285V16.2639H26.4498V5.54285H34.8804V16.2639H35.92V5.54285V4.51135Z" fill="white"/>
<path d="M53.8217 27.2529C53.0982 26.0177 52.7257 24.6085 52.7443 23.1772C52.7629 21.7459 53.1719 20.3468 53.9272 19.1309H54.1953C53.4663 20.3563 53.0728 21.752 53.0542 23.1777C53.0357 24.6034 53.3928 26.0089 54.0897 27.2529H53.8217Z" fill="white"/>
<path d="M97.136 19.7157C97.8595 20.9509 98.232 22.3601 98.2134 23.7914C98.1948 25.2227 97.7858 26.6218 97.0305 27.8377H96.7949C97.5239 26.6123 97.9174 25.2166 97.936 23.7909C97.9545 22.3651 97.5974 20.9596 96.9005 19.7157H97.136Z" fill="white"/>
<path d="M57.298 25.6529L56.0959 22.8589L55.4218 23.866L55.4055 25.6123L55.1294 25.6285L55.17 20.8121L55.4462 20.7959L55.4299 23.4924L57.2086 20.8284H57.5416L56.3152 22.6071L57.5904 25.661L57.298 25.6529Z" fill="white"/>
<path d="M59.109 25.7667C58.508 25.7667 58.1181 25.2713 58.1344 24.5159C58.1074 24.239 58.1723 23.9609 58.3191 23.7246C58.4659 23.4883 58.6864 23.3068 58.9466 23.2083L59.905 22.8022C60.1974 22.6722 60.3111 22.4042 60.3192 21.8844C60.3273 21.3646 60.0512 20.9422 59.507 20.9341C58.7841 20.9341 58.6298 21.259 58.6055 21.8438H58.3374C58.3374 21.0316 58.7192 20.6823 59.5232 20.6904C60.3273 20.6986 60.6441 21.0803 60.636 21.9656V24.8083C60.636 25.1413 60.636 25.4418 60.9365 25.4499V25.6692C60.8642 25.6848 60.7894 25.6848 60.7172 25.6692C60.506 25.6692 60.2948 25.4499 60.2948 24.857C60.2508 25.1253 60.1041 25.366 59.8859 25.5282C59.6676 25.6903 59.3949 25.7613 59.1253 25.7261L59.109 25.7667ZM59.1902 23.3545C58.9611 23.4385 58.7645 23.5931 58.6287 23.7959C58.493 23.9988 58.4251 24.2395 58.4349 24.4834C58.4349 25.1088 58.6948 25.4906 59.1496 25.4906C60.0106 25.4906 60.303 24.524 60.3111 24.191V22.8347L59.1902 23.3545Z" fill="white"/>
<path d="M61.5615 27.4642L61.6265 20.8935H61.8702V21.6569C61.9183 21.399 62.0567 21.1666 62.2606 21.0014C62.4645 20.8362 62.7205 20.749 62.9829 20.7554C63.165 20.741 63.3477 20.7755 63.5119 20.8555C63.6761 20.9355 63.816 21.058 63.9169 21.2102C64.2343 21.878 64.3715 22.6172 64.3149 23.3545C64.3719 24.0474 64.2251 24.7419 63.8925 25.3525C63.7927 25.5112 63.6514 25.6397 63.484 25.7241C63.3165 25.8085 63.1293 25.8457 62.9423 25.8317C62.6942 25.8122 62.4582 25.7168 62.2664 25.5583C62.0745 25.3999 61.9362 25.1862 61.8702 24.9464V27.4723L61.5615 27.4642ZM63.0154 20.9666C62.528 20.9666 62.1382 21.3483 61.9676 21.9981C61.8818 22.4036 61.849 22.8186 61.8702 23.2326C61.8674 23.607 61.8863 23.9813 61.927 24.3535V24.4509C61.9351 24.7328 62.0447 25.0023 62.2358 25.2098C62.4268 25.4172 62.6863 25.5487 62.9666 25.5799C63.1204 25.5817 63.2717 25.5418 63.4047 25.4646C63.5377 25.3874 63.6473 25.2757 63.722 25.1413C63.9837 24.5728 64.0875 23.9444 64.0225 23.322C64.0392 22.8545 64.0093 22.3865 63.9331 21.925C63.8276 21.3158 63.5027 20.9747 63.0072 20.9747" fill="white"/>
<path d="M67.3605 27.5455V25.718V25.0114C67.0275 25.8236 66.5483 25.8236 66.3453 25.8236C66.1061 25.8448 65.8672 25.7806 65.6709 25.6423C65.4746 25.504 65.3337 25.3006 65.2732 25.0683C65.1239 24.4852 65.0717 23.8815 65.1189 23.2814C65.1007 22.6792 65.1943 22.0789 65.395 21.5108C65.4609 21.2806 65.6066 21.0814 65.8061 20.949C66.0055 20.8165 66.2456 20.7594 66.4834 20.788C66.6783 20.788 67.1656 20.8773 67.5149 21.657L67.458 20.9748V19.1636H67.7342V20.991V21.6814C68.0753 20.9098 68.5464 20.8286 68.7494 20.8692C68.9878 20.8459 69.2266 20.9084 69.4231 21.0453C69.6196 21.1823 69.7608 21.3847 69.8215 21.6164C70.0039 22.1936 70.081 22.7988 70.0489 23.4033C70.0674 24.0214 69.9738 24.6378 69.7728 25.2226C69.7069 25.4528 69.5612 25.652 69.3617 25.7845C69.1623 25.9169 68.9222 25.974 68.6844 25.9455C68.4895 25.9455 68.0103 25.848 67.6611 25.0683L67.7017 25.7586V27.5942L67.3605 27.5455ZM68.7007 21.0479C68.3433 21.0479 67.9697 21.4053 67.7017 22.0225V22.518V24.1424V24.6459C67.9453 25.2632 68.3108 25.6368 68.6682 25.6449C68.8803 25.6436 69.0849 25.5669 69.2457 25.4285C69.4064 25.2902 69.5126 25.0991 69.5454 24.8896C69.6753 24.3858 69.7354 23.8666 69.724 23.3464C69.7517 22.8361 69.7052 22.3245 69.586 21.8276C69.4398 21.324 69.1555 21.0641 68.7738 21.0154L68.7007 21.0479ZM66.524 21.0154C66.1016 21.0154 65.8092 21.2672 65.6468 21.7707C65.5162 22.2632 65.4587 22.7722 65.4762 23.2814C65.447 23.8021 65.4907 24.3242 65.6062 24.8327C65.7524 25.3363 66.0367 25.5962 66.4671 25.6449C66.8976 25.6937 67.1981 25.2795 67.458 24.6703V24.1749V22.5505V22.0469C67.2143 21.4296 66.8489 21.056 66.4915 21.0479" fill="white"/>
<path d="M73.29 25.864L73.3144 22.6802L73.3793 21.5269L71.0727 25.8234L70.8696 25.8316L70.9102 21.0152L71.1864 21.0071L71.162 24.1909L71.097 25.3524L73.3956 21.0396H73.6067L73.5661 25.8722L73.29 25.864Z" fill="white"/>
<path d="M74.4922 25.9697C74.4008 25.9855 74.3074 25.9855 74.216 25.9697L74.1592 25.7098H74.3785C74.4779 25.7172 74.5773 25.6949 74.6641 25.6457C74.7508 25.5966 74.821 25.5228 74.8658 25.4337C75.0395 24.8216 75.1082 24.1844 75.0688 23.5494V21.0721H77.3511V25.8804H77.075L77.1156 21.2752H75.3694V23.7118C75.4156 24.3034 75.3382 24.8981 75.1419 25.458C75.0909 25.5865 75.0041 25.6976 74.8918 25.7782C74.7795 25.8588 74.6465 25.9056 74.5084 25.9129" fill="white"/>
<path d="M79.5847 26.0753C78.6831 26.0753 78.2283 25.6367 78.2364 24.8083H78.5045C78.519 25.0095 78.5877 25.2031 78.7031 25.3685C78.8185 25.534 78.9765 25.6653 79.1603 25.7484C79.3441 25.8316 79.547 25.8636 79.7475 25.8411C79.9479 25.8186 80.1386 25.7424 80.2994 25.6205C80.4186 25.4957 80.5104 25.3475 80.5692 25.1853C80.6279 25.0231 80.6522 24.8505 80.6406 24.6783C80.6493 24.5076 80.622 24.3369 80.5604 24.1774C80.4989 24.0178 80.4044 23.8731 80.2832 23.7524C80.0489 23.5786 79.7625 23.4898 79.471 23.5007H79.2842V23.2814H79.5441C79.8086 23.2966 80.0692 23.2126 80.2751 23.0458C80.3741 22.9365 80.4497 22.808 80.4972 22.6683C80.5447 22.5286 80.5631 22.3807 80.5512 22.2336C80.5512 21.527 80.2263 21.2021 79.6009 21.2021C79.4757 21.1955 79.3504 21.2145 79.2328 21.2582C79.1152 21.3018 79.0078 21.3691 78.9172 21.4559C78.8267 21.5426 78.7549 21.647 78.7062 21.7627C78.6576 21.8783 78.6331 22.0026 78.6344 22.128H78.3907C78.3794 21.9517 78.4112 21.7752 78.4834 21.6139C78.5556 21.4526 78.6659 21.3112 78.805 21.2021C79.0403 21.0312 79.3267 20.9453 79.6172 20.9585C80.4294 20.9585 80.8355 21.3889 80.8192 22.1037C80.8413 22.294 80.8191 22.4869 80.7543 22.6673C80.6895 22.8476 80.5838 23.0105 80.4456 23.1433C80.3232 23.2503 80.1747 23.3231 80.0152 23.3545C80.1345 23.3611 80.2511 23.3927 80.3575 23.4472C80.4638 23.5018 80.5575 23.5781 80.6324 23.6712C80.8564 23.9454 80.972 24.2922 80.9573 24.6459C80.9825 24.8346 80.9649 25.0266 80.9057 25.2076C80.8465 25.3886 80.7472 25.5539 80.6154 25.6913C80.4835 25.8286 80.3223 25.9345 80.1439 26.001C79.9654 26.0675 79.7743 26.0929 79.5847 26.0753Z" fill="white"/>
<path d="M82.9878 26.0753C82.7941 26.0858 82.6011 26.0447 82.4284 25.9562C82.2558 25.8678 82.1097 25.7351 82.005 25.5717C81.67 24.9387 81.5261 24.222 81.5908 23.5087C81.5788 22.9301 81.6752 22.3544 81.8751 21.8112C81.9573 21.5619 82.1199 21.3468 82.3374 21.1998C82.555 21.0529 82.8151 20.9822 83.0771 20.999C83.2709 20.9885 83.4639 21.0296 83.6365 21.118C83.8092 21.2065 83.9553 21.3392 84.0599 21.5026C84.3864 22.1328 84.5299 22.8418 84.4741 23.5493C84.4918 24.1322 84.4009 24.7134 84.2061 25.2631C84.1233 25.5153 83.9582 25.7324 83.7373 25.8797C83.5164 26.0269 83.2525 26.0958 82.9878 26.0753ZM83.0528 21.2021C82.6304 21.2021 82.2812 21.5107 82.1025 22.0711C81.9646 22.5264 81.8988 23.0005 81.9076 23.4762C81.8846 23.9525 81.9201 24.4299 82.0132 24.8976C82.0358 25.1461 82.1465 25.3783 82.3251 25.5526C82.5038 25.7268 82.7388 25.8315 82.9878 25.8479C83.2322 25.8398 83.4663 25.7471 83.6499 25.5856C83.8336 25.4241 83.9556 25.2039 83.9949 24.9626C84.1207 24.5024 84.1781 24.0262 84.1655 23.5493C84.1873 23.0736 84.138 22.5973 84.0193 22.1361C83.9821 21.9016 83.8676 21.6863 83.6939 21.5244C83.5203 21.3625 83.2974 21.2633 83.0609 21.2427" fill="white"/>
<path d="M88.7213 26.0672L88.7457 22.6153L88.8269 21.6244L87.2756 25.9616L87.0238 25.9697L85.5375 21.5919L85.6349 22.5747L85.5862 26.0103L85.3101 26.0184L85.3588 21.2102L85.6593 21.194L87.1619 25.6936L88.7375 21.2427L89.0299 21.2346L88.9893 26.0753L88.7213 26.0672Z" fill="white"/>
<path d="M92.4819 26.1159L92.5063 22.932L92.5793 21.7787L90.2727 26.0753L90.0615 26.0834L90.1103 21.267L90.3864 21.2589L90.362 24.4427L90.2889 25.6042L92.5956 21.2914H92.7986L92.758 26.124L92.4819 26.1159Z" fill="white"/>
<path d="M95.0818 26.2377C94.8989 26.2473 94.7164 26.2141 94.5486 26.1408C94.3808 26.0675 94.2324 25.9561 94.1152 25.8154C93.7344 25.1044 93.584 24.2927 93.6848 23.4925C93.6848 22.1686 93.7822 20.8203 94.497 20.2031C94.6715 20.047 94.876 19.9282 95.098 19.8538L95.5447 19.7482C95.8858 19.6751 96.0077 19.6508 96.0077 19.5127H96.2432C96.2432 19.6914 96.2432 19.8782 95.8858 19.9838C95.727 20.0356 95.5639 20.0736 95.3985 20.0975C95.1332 20.1233 94.8842 20.2377 94.6919 20.4224C94.2455 21.0131 94.0109 21.7369 94.0259 22.4772C94.2371 21.6244 94.765 21.332 95.1792 21.332C95.3483 21.3208 95.5179 21.3462 95.6763 21.4064C95.8347 21.4667 95.9782 21.5605 96.097 21.6813C96.4776 22.3134 96.6482 23.0498 96.5843 23.7849C96.6137 24.4488 96.471 25.1091 96.1701 25.7017C96.0598 25.8799 95.9035 26.0252 95.7178 26.1224C95.532 26.2195 95.3236 26.265 95.1143 26.254L95.0818 26.2377ZM95.1711 21.6244C94.5051 21.6244 94.0259 22.4366 94.0097 23.6955C93.9382 24.3601 94.0684 25.0308 94.3833 25.6204C94.4702 25.7297 94.5818 25.8168 94.7088 25.8746C94.8359 25.9325 94.9748 25.9595 95.1143 25.9535C95.2746 25.9595 95.4338 25.9237 95.5762 25.8497C95.7186 25.7756 95.8393 25.6659 95.9265 25.5311C96.1842 24.9724 96.2986 24.3583 96.2595 23.7443C96.3349 23.103 96.204 22.4543 95.8858 21.8924C95.7927 21.7971 95.6795 21.7236 95.5545 21.6773C95.4295 21.6309 95.2958 21.6129 95.163 21.6244" fill="white"/>
<path d="M96.7945 14.0628C96.3703 14.5225 95.8554 14.8891 95.2821 15.1394C94.7089 15.3897 94.0899 15.5181 93.4644 15.5166C92.189 15.4679 90.9836 14.9208 90.1073 13.9929C89.231 13.0649 88.7537 11.8302 88.778 10.5541C88.753 9.914 88.8545 9.27528 89.0765 8.67444C89.2986 8.0736 89.6369 7.52244 90.0722 7.05247C90.5074 6.58251 91.0311 6.20297 91.6132 5.93556C92.1952 5.66815 92.8243 5.51813 93.4644 5.49406C94.1887 5.50192 94.9006 5.68296 95.5407 6.02207C96.1808 6.36117 96.7304 6.8485 97.1437 7.44334L98.2239 7.16719C97.7175 6.3598 97.0162 5.69268 96.1845 5.22717C95.3528 4.76166 94.4175 4.5127 93.4644 4.50317C91.9032 4.5478 90.4235 5.20998 89.35 6.3444C88.2765 7.47882 87.6969 8.99279 87.7384 10.5541C87.7101 12.1031 88.2968 13.6002 89.37 14.7176C90.4432 15.835 91.9155 16.4815 93.4644 16.5156C94.3197 16.5098 95.1627 16.311 95.9305 15.9341C96.6983 15.5572 97.3712 15.012 97.8991 14.3389L96.7945 14.0628Z" fill="white"/>
<path d="M61.9356 16.5482C61.6392 16.5228 61.3456 16.4712 61.0584 16.3939H60.9609C61.2096 16.1486 61.4816 15.9283 61.7731 15.736C62.0513 15.7346 62.3239 15.6585 62.5626 15.5156C62.8012 15.3727 62.997 15.1683 63.1295 14.9238C63.6737 14.1116 63.8605 11.7724 63.8605 6.05454V4.49512H73.9399V16.2802H72.9653V5.33981H64.8433V7.89824C64.8418 9.62916 64.7496 11.3588 64.5671 13.0801C64.2585 15.5167 63.4706 16.5563 61.9356 16.5563" fill="white"/>
</svg>
