<svg width="113" height="37" viewBox="0 0 113 37" fill="none" xmlns="http://www.w3.org/2000/svg">
<path d="M66.71 31.0201C66.71 30.2471 66.6791 29.8142 66.6714 29.4741H67.3787L67.4212 30.1118H67.4405C67.5239 29.9007 67.6686 29.7194 67.8559 29.5913C68.0433 29.4631 68.2648 29.3941 68.4917 29.3929C69.3575 29.3929 69.9333 30.3167 69.9333 31.9554C69.9333 33.7989 69.1604 34.5371 68.3874 34.5371C68.2028 34.5373 68.0224 34.4827 67.869 34.3801C67.7155 34.2776 67.596 34.1318 67.5255 33.9612H67.5023V36.4309H66.71V31.0201ZM67.5023 32.6008C67.4955 32.7381 67.5059 32.8757 67.5333 33.0105C67.6878 33.7216 68.0511 33.8569 68.2637 33.8569C68.9246 33.8569 69.1294 32.9486 69.1294 31.9244C69.1294 30.9002 68.8821 30.0306 68.2521 30.0306C67.8927 30.0306 67.5758 30.4828 67.5255 30.9389C67.5053 31.0667 67.4975 31.1961 67.5023 31.3254V32.6008Z" fill="white"/>
<path d="M73.887 31.9554C73.887 33.8878 72.9904 34.5294 72.229 34.5294C71.3324 34.5294 70.6096 33.7177 70.6096 31.967C70.6096 30.1466 71.4251 29.3813 72.2792 29.3813C73.1334 29.3813 73.887 30.2162 73.887 31.9554ZM71.4058 31.9554C71.4058 32.7786 71.5488 33.8878 72.2715 33.8878C72.9942 33.8878 73.0831 32.7283 73.0831 31.9554C73.0831 31.1824 72.9479 30.0229 72.2483 30.0229C71.5488 30.0229 71.4058 31.1824 71.4058 31.9554Z" fill="white"/>
<path d="M74.9266 29.4663H75.8619L76.5267 31.6577C76.7006 32.2336 76.8243 32.6355 76.9789 33.2423H77.0021C77.1566 32.6046 77.2494 32.2452 77.4233 31.6577L78.0494 29.4663H79.0079L79.348 34.4481H78.5983L78.5055 32.307C78.4707 31.65 78.4514 31.1475 78.4321 30.2161H78.4011C78.2891 30.7301 78.1113 31.3987 77.9064 32.1485L77.2224 34.4172H76.6465L75.9972 32.2142C75.7924 31.5263 75.6107 30.8229 75.4832 30.2161H75.46C75.46 31.02 75.4291 31.6616 75.3904 32.3572L75.3092 34.4597H74.5942L74.9266 29.4663Z" fill="white"/>
<path d="M81.0023 29.4663V31.1746C81.0023 32.0365 81.0023 32.7785 80.9404 33.5631H80.9598C81.1878 32.9022 81.4738 32.191 81.6902 31.6306L82.525 29.4702H83.3598V34.4481H82.6294V32.8094C82.6294 31.7389 82.6487 31.1398 82.699 30.3823H82.6796C82.4941 30.9968 82.2931 31.5417 82.0806 32.0983C81.9182 32.5118 81.4661 33.6442 81.095 34.4481H80.2795V29.4663H81.0023Z" fill="white"/>
<path d="M87.4683 29.4663V34.4481H86.6837V30.1311H85.2537V34.4481H84.4614V29.4663H87.4683Z" fill="white"/>
<path d="M91.4221 29.4663V34.4481H90.6491V30.1233H89.5554V31.7002C89.5554 33.1109 89.451 34.0462 88.7128 34.4056C88.5481 34.482 88.3687 34.5216 88.1872 34.5216L88.0442 33.8916C88.2062 33.8648 88.3545 33.7845 88.4655 33.6636C88.7553 33.366 88.794 32.6664 88.794 31.7311V29.4663H91.4221Z" fill="white"/>
<path d="M95.5807 31.9554C95.5807 33.8878 94.684 34.5294 93.9226 34.5294C93.026 34.5294 92.3071 33.7177 92.3071 31.967C92.3071 30.1466 93.1188 29.3813 93.9729 29.3813C94.827 29.3813 95.5807 30.2162 95.5807 31.9554ZM93.0994 31.9554C93.0994 32.7786 93.2424 33.8878 93.9613 33.8878C94.6802 33.8878 94.7768 32.7283 94.7768 31.9554C94.7768 31.1824 94.6415 30.0229 93.942 30.0229C93.2424 30.0229 93.0994 31.1824 93.0994 31.9554Z" fill="white"/>
<path d="M98.8967 34.3245C98.6425 34.4553 98.3592 34.5191 98.0735 34.51C96.9836 34.51 96.2493 33.6326 96.2493 31.9862C96.2493 30.5562 96.9681 29.3929 98.2165 29.3929C98.4583 29.391 98.6975 29.4439 98.916 29.5475L98.7614 30.1968C98.586 30.1096 98.3931 30.0633 98.1972 30.0615C97.4242 30.0615 97.0377 31.0123 97.0377 31.9939C97.0377 33.1534 97.4822 33.8568 98.1972 33.8568C98.3964 33.8555 98.5929 33.8106 98.773 33.7254L98.8967 34.3245Z" fill="white"/>
<path d="M102.429 29.4663V30.1311H101.293V34.4481H100.504V30.1311H99.3682V29.4663H102.429Z" fill="white"/>
<path d="M103.735 29.4663V31.1746C103.735 32.0365 103.735 32.7785 103.674 33.5631H103.693C103.921 32.9022 104.207 32.191 104.423 31.6306L105.258 29.4702H106.093V34.4481H105.363V32.8094C105.363 31.7389 105.382 31.1398 105.432 30.3823H105.413C105.227 30.9968 105.026 31.5417 104.818 32.0983C104.651 32.5118 104.199 33.6442 103.828 34.4481H103.013V29.4663H103.735Z" fill="white"/>
<path d="M107.38 29.4663H108.319L108.965 31.6577C109.142 32.2336 109.266 32.6355 109.417 33.2423C109.575 32.6046 109.668 32.2452 109.842 31.6577L110.472 29.4663H111.427L111.767 34.4481H111.017L110.924 32.307C110.893 31.65 110.874 31.1475 110.851 30.2161H110.82C110.708 30.7301 110.534 31.3987 110.325 32.1485L109.656 34.4365H109.081L108.451 32.2142C108.246 31.5263 108.064 30.8229 107.937 30.2161H107.913C107.913 31.02 107.886 31.6616 107.844 32.3572L107.763 34.4597H107.028L107.38 29.4663Z" fill="white"/>
<path d="M13.7573 17.4581C12.9194 18.9426 12.4603 20.6106 12.4205 22.3148C12.3808 24.0189 12.7616 25.7066 13.5292 27.2285H15.253C13.9237 25.6661 13.1779 23.6909 13.1428 21.6399C13.1487 20.2911 13.4844 18.9643 14.1206 17.775L13.7766 17.4542" fill="#D9CA9C"/>
<path d="M13.7227 17.717C12.9887 19.1658 12.5902 20.7613 12.5567 22.385C12.5233 24.0088 12.8558 25.6193 13.5295 27.0971H14.6503H15.0368C13.8489 25.5598 13.1912 23.679 13.1623 21.7365C13.1635 20.4524 13.4555 19.1852 14.0165 18.0301C13.916 17.9141 13.8194 17.8214 13.7227 17.717Z" stroke="#D9CA9C" stroke-width="2.74"/>
<path d="M23.6128 11.1121C21.8391 11.1082 20.0951 11.5679 18.5537 12.4455C18.6779 12.6273 18.7829 12.8216 18.8668 13.0252C20.3414 12.2988 21.9808 11.9718 23.6213 12.077C25.2618 12.1821 26.846 12.7156 28.2159 13.6243V12.229C26.7914 11.4982 25.2139 11.1154 23.6128 11.1121Z" fill="#D9CA9C"/>
<path d="M23.6515 11.2434C21.9601 11.2343 20.2912 11.632 18.7856 12.4029C18.9021 12.5603 19.0031 12.7285 19.0871 12.9053C20.5208 12.2749 22.0837 11.9938 23.6472 12.0852C25.2107 12.1765 26.7302 12.6378 28.0807 13.431V12.2174C26.6921 11.5761 25.181 11.2438 23.6515 11.2434V11.2434Z" stroke="#D9CA9C" stroke-width="2.74"/>
<path d="M16.8994 13.0367C16.8761 12.8687 16.8171 12.7077 16.7264 12.5644C16.6358 12.4211 16.5156 12.2988 16.3738 12.2057C16.1149 12.0743 15.8173 12.1478 15.5506 12.0434C14.8936 11.7883 14.8858 10.9883 14.5303 10.4975C14.0348 9.86413 13.4593 9.29771 12.8181 8.81237C11.2722 7.53696 9.60643 6.82583 8.48175 6.95723L8.38512 6.97656C8.3001 5.75139 7.05561 4.13201 5.53671 2.88752C3.91346 1.54254 2.22065 0.792755 1.11529 0.908702C0.802885 0.945071 0.510333 1.08051 0.280477 1.29519C0.280477 1.29519 0.280477 1.29519 0.280477 1.31451L0.234099 1.35703C0.0664274 1.61635 -0.0147557 1.92214 0.00220615 2.23049C0.0485847 3.33971 1.04959 4.89725 2.61873 6.29634C4.07965 7.5988 5.87295 8.57662 7.09425 8.4684C7.09425 8.50705 7.09425 8.53797 7.09425 8.57275C7.1445 9.70129 8.10299 11.2357 9.60256 12.569C10.1832 13.1249 10.8327 13.6042 11.535 13.9952C12.0877 14.2696 12.8838 14.1536 13.2355 14.7681C13.3785 15.0155 13.3554 15.3247 13.5254 15.5411C13.6382 15.6674 13.7773 15.7674 13.9328 15.8342C14.0884 15.9009 14.2567 15.9328 14.4259 15.9276C14.7493 15.9889 15.0789 16.011 15.4076 15.9933C15.5956 15.882 15.7483 15.7199 15.8482 15.5257C16.0685 15.1778 15.9062 15.0348 15.5545 14.9305C15.2607 14.8454 14.9361 14.8493 14.6462 14.7527C14.3564 14.6561 14.3525 14.5053 14.2868 14.2734C14.1515 13.7865 13.9931 13.2879 13.4636 13.114C13.0152 12.9826 12.5205 13.0328 12.0761 12.8744C11.4024 12.6472 10.7873 12.2737 10.275 11.7806C8.82958 10.4975 8.14164 9.18727 8.11458 8.51478C8.10371 8.44717 8.10668 8.37806 8.12328 8.31163C8.13989 8.2452 8.1698 8.18283 8.2112 8.12829L7.25272 7.30121V7.3244C6.95512 7.63359 5.29709 7.27029 3.30668 5.49631C1.79551 4.15906 1.07664 2.84114 1.04959 2.18411C1.04219 2.12637 1.04219 2.06793 1.04959 2.01019C1.10292 1.98812 1.15872 1.97254 1.21578 1.96381C1.86508 1.89038 3.28349 2.39668 4.85263 3.68755C6.91261 5.37263 7.53099 6.95723 7.27204 7.29734H7.25272L8.21893 8.1167C8.26446 8.06795 8.31951 8.02908 8.38067 8.00249C8.44183 7.97589 8.50781 7.96215 8.5745 7.9621C9.23926 7.88094 10.6422 8.34859 12.1379 9.58921C12.7146 10.0176 13.1896 10.5679 13.5293 11.2009C13.7534 11.6144 13.7805 12.113 13.9815 12.5342C14.2172 13.0328 14.7544 13.1101 15.2375 13.1681C15.4772 13.1951 15.6472 13.2183 15.767 13.4502C15.8868 13.6821 15.9564 14.0415 16.0878 14.3198C16.2192 14.5981 16.4086 14.7875 16.7178 14.5208C16.8919 14.3839 17.0255 14.2022 17.1043 13.9952C17.0669 13.6684 16.9931 13.3469 16.884 13.0367" fill="#A7243E"/>
<path d="M18.4069 14.0145C18.3286 13.5245 18.1706 13.0506 17.9393 12.6116C17.8156 12.4686 16.5325 12.314 16.5325 12.314L15.5972 13.4193C15.5972 13.4193 15.8909 14.6638 16.0687 14.8223C16.514 15.0071 16.9896 15.108 17.4716 15.1199C17.8411 14.8044 18.157 14.4311 18.4069 14.0145Z" fill="#A7243E"/>
<path d="M15.5622 17.4195C15.9501 17.1265 16.2781 16.7617 16.5284 16.345C16.4831 15.8487 16.3357 15.3672 16.0955 14.9305C15.9564 14.8107 14.8665 14.5208 14.6153 14.6252C14.2934 14.9465 13.9974 15.2929 13.7302 15.6609C13.8345 16.1433 13.978 16.6164 14.1592 17.0755C14.6006 17.2787 15.0768 17.3955 15.5622 17.4195Z" fill="#A7243E"/>
<path d="M19.0251 26.7571V24.5271C20.5835 24.9151 22.1846 25.1046 23.7905 25.0914C27.0563 25.0914 29.0274 24.1174 29.3288 22.3357H20.8725V20.6197H29.2747C28.8883 19.1201 27.1684 18.0032 23.7634 18.0032C22.29 18.0169 20.8255 18.2341 19.4116 18.6486L18.4724 17.0292C20.3179 16.4964 22.2291 16.2258 24.1499 16.2253C30.0207 16.2253 33.2903 18.5443 33.2903 21.6091C33.2903 24.674 30.2448 27.2441 23.9644 27.2441C22.3081 27.253 20.6554 27.0898 19.0328 26.7571H19.0251ZM34.5116 19.267H38.2644V21.8333H43.0028V19.267H46.7401V26.7146H43.0028V24.0981H38.2644V26.7339H34.5116V19.267ZM48.2938 19.267H60.2749V26.7146H56.5067V21.5125H52.0311V26.7146H48.3131L48.2938 19.267ZM61.3841 26.7765V24.902C61.5312 24.9242 61.6798 24.9346 61.8286 24.9329C62.3115 24.9498 62.784 24.7904 63.1581 24.4846C64.1282 23.7116 65.0905 21.8835 65.6819 19.2709H73.3691V24.4382C73.3691 25.0682 73.5662 26.2856 75.1122 26.2083C73.9642 26.6943 72.7084 26.8689 71.4715 26.7146C70.9572 26.6781 70.4765 26.4457 70.1285 26.0653C69.7805 25.6849 69.5916 25.1856 69.6009 24.6701V21.5125H68.4414C68.0008 23.6227 67.0848 24.9909 65.736 25.9416C64.905 26.5252 63.8035 26.8228 62.3001 26.8228C62.0798 26.8228 61.6895 26.8228 61.3841 26.7765ZM77.976 23.5957C78.0611 24.6353 79.4717 25.2189 81.4544 25.2189C82.5918 25.238 83.7243 25.0668 84.8053 24.7126L85.9145 26.1619C84.3753 26.6561 82.7655 26.895 81.1491 26.8692C76.1248 26.8692 74.2232 24.9986 74.2232 23.043C74.2078 20.7936 76.3683 19.0738 80.3027 19.0738C84.1251 19.0738 86.3435 20.6197 86.3435 23.1048V23.5957H77.976ZM82.5752 22.1657C82.5173 21.4236 81.8796 20.6815 80.2563 20.6815C78.7297 20.6815 77.9567 21.3927 77.9567 22.1657H82.5752ZM87.0508 19.267H90.6799V22.243C90.6909 22.79 90.6547 23.337 90.5717 23.8778H90.6528C90.9582 23.5802 91.5959 22.9541 92.3418 22.3318L96.083 19.2631H99.7392V26.7146H96.083V23.7387C96.0786 23.1893 96.1252 22.6407 96.2221 22.1H96.1371C95.8318 22.4014 95.167 23.0314 94.4481 23.6459L90.7069 26.7185H87.0508V19.267ZM90.1659 16.6582H92.2181C92.2181 17.1297 92.535 17.5278 93.4781 17.5278C94.4211 17.5278 94.7341 17.1413 94.7341 16.6582H96.7903C96.8637 17.7636 95.681 18.5365 93.4781 18.5365C91.2751 18.5365 90.1118 17.7636 90.1659 16.6582ZM104.423 21.8333H100.52V19.267H112.887L111.917 21.8333H108.176V26.7146H104.435L104.423 21.8333Z" fill="white"/>
</svg>
