<svg width="156" height="37" viewBox="0 0 156 37" fill="none" xmlns="http://www.w3.org/2000/svg">
<path d="M1.17426 0.953606H1.64642C2.01463 1.60338 2.36117 1.92826 2.69039 1.92826C2.95967 1.89577 3.22337 1.82729 3.47444 1.72467C4.74562 1.23173 6.09239 0.962087 7.45536 0.927615C9.07049 0.895511 10.6624 1.31563 12.0514 2.14052C13.4382 2.99682 14.6068 4.16394 15.4649 5.54964C16.4214 7.08963 16.9091 8.87473 16.8684 10.6872C16.9359 13.2242 16.0022 15.6859 14.2693 17.5401C13.407 18.4621 12.3575 19.1891 11.1913 19.6725C10.0251 20.1558 8.76907 20.3844 7.50734 20.3427C4.33358 20.3427 1.86157 18.9132 0.0913086 16.0543L0.463843 15.7684C2.19656 18.1133 4.36246 19.2858 6.96154 19.2858C8.16137 19.3192 9.34339 18.9901 10.3533 18.3414C11.3842 17.608 12.2055 16.618 12.7358 15.4695C13.4044 14.038 13.7293 12.47 13.6845 10.8907H6.41573V9.89443H13.6845C13.4896 7.10043 12.7878 5.07314 11.5662 3.79526C10.3447 2.51738 8.96716 1.88494 7.48568 1.88494C6.07491 1.9223 4.71742 2.43174 3.63039 3.33176C3.0225 3.79322 2.51174 4.3702 2.12742 5.02956C1.7431 5.68893 1.49279 6.41771 1.39085 7.17407H0.862368L1.17426 0.953606Z" fill="white"/>
<path d="M36.6342 19.4113V19.9138H31.8129C31.2873 19.0965 30.1856 17.5328 28.5078 15.2225C26.8299 12.9122 25.8062 11.6343 25.4365 11.3888C24.9296 11.1013 24.3506 10.966 23.7688 10.999V16.522C23.7688 17.7436 23.9276 18.519 24.2453 18.8482C24.5615 19.1774 25.3022 19.3637 26.4675 19.3983V19.9008H18.4233V19.4113C19.5785 19.3767 20.3163 19.1962 20.6369 18.8698C20.9618 18.5449 21.122 17.7696 21.122 16.535V4.73518C21.122 3.51361 20.9661 2.73822 20.6412 2.409C20.3163 2.07979 19.5843 1.89785 18.4233 1.85453V1.36071H26.4675V1.85453C25.3022 1.89785 24.5615 2.07979 24.2453 2.409C23.9291 2.73822 23.7688 3.52661 23.7688 4.73518V9.90734C24.4677 9.93485 25.1671 9.86782 25.848 9.70808C26.3365 9.52451 26.7798 9.23789 27.1476 8.86771C27.6024 8.46174 27.9886 7.98486 28.2912 7.45555C28.7034 6.64554 29.065 5.81079 29.3741 4.9561C29.6496 4.17313 29.9886 3.41398 30.3878 2.68624C30.7031 2.21539 31.1382 1.83709 31.6483 1.59029C32.2917 1.28023 33.0009 1.13155 33.7146 1.15711C35.1267 1.15711 35.8328 1.64661 35.8328 2.63426C35.8311 2.80702 35.7914 2.97728 35.7165 3.13299C35.6417 3.28869 35.5335 3.42603 35.3997 3.53527C35.1418 3.78183 34.7991 3.91986 34.4423 3.9208C33.9859 3.85887 33.5451 3.71194 33.1428 3.48762C32.7998 3.28319 32.4201 3.14781 32.0252 3.0891C31.8746 3.0953 31.7279 3.13845 31.598 3.21475C31.468 3.29105 31.3589 3.39815 31.2801 3.52661C30.8766 4.2751 30.5403 5.05789 30.2751 5.86578C29.4088 8.19917 28.284 9.68354 26.9007 10.3189C27.7381 10.4604 28.8933 11.5953 30.3661 13.7237C31.4152 15.3081 32.5731 16.8178 33.8315 18.2417C34.194 18.616 34.6283 18.9132 35.1084 19.1157C35.5885 19.3181 36.1045 19.4216 36.6255 19.42" fill="white"/>
<path d="M53.0132 0.927371L53.4463 7.2388H53.0132C52.4356 5.35014 51.6226 3.98995 50.5744 3.15825C49.4882 2.32019 48.1468 1.88123 46.7754 1.91502C45.5866 1.89957 44.4183 2.22583 43.4096 2.85502C42.3288 3.57932 41.503 4.62487 41.0487 5.84396C40.4257 7.47098 40.1312 9.20533 40.1824 10.9468C40.1476 12.4431 40.4249 13.9302 40.9967 15.3133C41.4915 16.4931 42.3466 17.4862 43.4399 18.1506C44.5715 18.8117 45.8636 19.1474 47.1739 19.1209C48.2921 19.1416 49.397 18.8762 50.3838 18.3499C51.3079 17.8358 52.3273 16.8106 53.442 15.2743L53.8752 15.5515C53.1068 17.0183 51.9785 18.2658 50.596 19.1772C49.2519 19.9705 47.7118 20.3698 46.1516 20.3295C43.0529 20.3295 40.6545 19.1873 38.9565 16.903C37.679 15.1706 37.0104 13.0642 37.0548 10.9122C37.0381 9.12991 37.4701 7.3721 38.311 5.80064C39.1054 4.29809 40.3062 3.0492 41.7765 2.19659C43.2302 1.33924 44.8884 0.890265 46.5761 0.897048C47.968 0.906771 49.338 1.24518 50.5744 1.8847C50.8257 2.03966 51.1056 2.14276 51.3974 2.18792C51.6403 2.18882 51.8738 2.09387 52.0472 1.92368C52.295 1.64146 52.4613 1.29701 52.528 0.927371H53.0132Z" fill="white"/>
<path d="M61.2525 2.36545C61.0215 7.7802 60.5883 11.5763 59.953 13.7537C59.4588 15.6344 58.5731 17.3895 57.3539 18.9043H64.2848C65.5193 18.9043 66.2514 18.796 66.494 18.5794C66.7366 18.3628 66.8622 17.6697 66.8622 16.4914V2.36545H61.2525ZM56.7561 1.36047H72.173V1.85863C71.0164 1.89762 70.2756 2.07955 69.9594 2.40877C69.6432 2.73799 69.4743 3.52637 69.4743 4.73494V15.0143C69.4743 17.0026 69.5912 18.2328 69.8165 18.705C70.0417 19.1772 70.7911 19.4111 72.0517 19.4111V25.2547H71.5665C71.3736 24.0851 70.9303 22.9709 70.267 21.9885C69.7539 21.2424 69.0299 20.6663 68.1877 20.3337C67.2883 20.0293 66.3431 19.8827 65.3937 19.9006H60.6287C58.5408 19.9006 57.0088 20.4623 56.0327 21.5856C55.1003 22.6031 54.4899 23.8736 54.2783 25.2373H53.8062V19.4111C55.2819 19.2811 56.4861 18.3989 57.4189 16.7643C58.4241 14.8954 59.0761 12.8572 59.3422 10.7518C59.6593 8.81636 59.8359 6.8605 59.8707 4.89955C59.9151 4.21063 59.7979 3.52087 59.5285 2.88527C59.368 2.52231 59.0752 2.23417 58.7097 2.07955C58.0698 1.92737 57.4138 1.85319 56.7561 1.85863V1.36047Z" fill="white"/>
<path d="M81.2957 19.9136V19.4111C82.4609 19.3764 83.206 19.1901 83.5222 18.8609C83.8384 18.5317 84.0074 17.7563 84.0074 16.5348V10.8558H83.6218C83.3299 10.8454 83.0403 10.9111 82.7815 11.0464C82.5663 11.1708 82.3837 11.3445 82.2487 11.5532C82.1129 11.7669 81.505 12.8672 80.425 14.854L77.6829 19.9309H72.918V19.4111C74.2782 19.2003 75.2889 18.6761 75.9502 17.8386C77.1613 16.1098 78.2707 14.312 79.2727 12.4542C79.6679 11.6572 80.238 10.9598 80.9405 10.4139C80.4179 10.0464 79.9891 9.56117 79.6886 8.99743C79.2268 7.97865 78.8487 6.92399 78.558 5.84388C78.3458 5.05323 78.0556 4.28562 77.6916 3.55236C77.6146 3.41886 77.5033 3.30834 77.3693 3.23219C77.2352 3.15604 77.0833 3.11703 76.9292 3.11918C76.504 3.16374 76.0963 3.31253 75.7423 3.55236C75.3831 3.78189 74.972 3.91744 74.5467 3.94655C74.1942 3.95983 73.85 3.83735 73.5851 3.60434C73.4616 3.49718 73.3637 3.36376 73.2985 3.21385C73.2333 3.06395 73.2024 2.90135 73.2082 2.73798C73.2135 2.52224 73.2687 2.31066 73.3694 2.11978C73.4701 1.92891 73.6136 1.76391 73.7887 1.6377C74.2842 1.27168 74.8937 1.09359 75.5084 1.13521C76.2073 1.12455 76.894 1.31881 77.4837 1.69401C78.0102 2.00545 78.4415 2.45481 78.7312 2.99355C79.1498 3.94692 79.5057 4.92653 79.7969 5.92618C80.0528 6.81906 80.3623 7.69568 80.7239 8.55125C80.9129 8.98312 81.2306 9.34616 81.6335 9.59088C82.1046 9.84116 82.6341 9.96082 83.167 9.93742C83.4488 9.93173 83.7298 9.90422 84.0074 9.85512V4.73494C84.0074 3.51337 83.8457 2.73798 83.5222 2.40876C83.206 2.07954 82.4609 1.89761 81.2957 1.85862V1.36047H89.3268V1.85862C88.1746 1.89761 87.4338 2.07954 87.1176 2.40876C86.8014 2.73798 86.6411 3.51337 86.6411 4.73494V9.83779C86.8772 9.8908 87.1182 9.91839 87.3602 9.9201C87.9228 9.95014 88.4833 9.83056 88.9846 9.57355C89.382 9.33696 89.7012 8.98907 89.9029 8.57291C90.273 7.71138 90.5884 6.82739 90.8473 5.92618C91.1259 4.93827 91.4703 3.97011 91.8782 3.02821C92.1723 2.49263 92.6027 2.0443 93.1258 1.72867C93.7172 1.33571 94.4128 1.129 95.1228 1.13521C95.7203 1.09886 96.313 1.26189 96.8078 1.59872C96.9903 1.72426 97.1401 1.89156 97.2449 2.08671C97.3496 2.28186 97.4062 2.49921 97.41 2.72065C97.4166 2.88372 97.3865 3.0462 97.3221 3.19614C97.2576 3.34607 97.1603 3.47964 97.0374 3.58701C96.7737 3.82199 96.4287 3.94478 96.0758 3.92922C95.6494 3.89261 95.2379 3.75448 94.8759 3.52637C94.512 3.28396 94.0938 3.13516 93.6586 3.09319C93.5035 3.09795 93.3526 3.14429 93.2215 3.22735C93.0904 3.31041 92.9841 3.42714 92.9135 3.56535C92.5646 4.29319 92.2833 5.05155 92.0732 5.83088C91.7762 6.91182 91.3982 7.96888 90.9426 8.99309C90.6391 9.55241 90.2107 10.0342 89.6907 10.4009C90.1279 10.7179 90.5074 11.1077 90.8126 11.5532C91.1014 11.9921 91.7887 13.1473 92.8746 15.0186C93.894 16.8033 94.691 17.931 95.2657 18.4018C95.9792 18.9327 96.815 19.2754 97.6959 19.3981V19.9006H92.9309C92.8183 19.6666 92.1107 18.3483 90.8083 15.9456L88.6424 11.9907C88.4904 11.7096 88.2993 11.4515 88.0749 11.224C87.9297 11.0841 87.7567 10.9764 87.5672 10.9077C87.3776 10.8391 87.1757 10.811 86.9747 10.8254C86.875 10.8254 86.7537 10.8254 86.6151 10.8254V16.5218C86.6151 17.7433 86.7754 18.523 87.0916 18.8479C87.4078 19.1728 88.1486 19.3634 89.3008 19.3981V19.9006L81.2957 19.9136Z" fill="white"/>
<path d="M112.48 4.41872C112.48 3.30401 112.298 2.59937 111.934 2.30481C111.571 2.01024 110.843 1.87163 109.743 1.87163V1.36047H117.826V1.85863C116.671 1.89906 115.931 2.08244 115.608 2.40877C115.287 2.73799 115.123 3.51338 115.123 4.73494V16.5218C115.123 17.7433 115.287 18.5231 115.608 18.8479C115.928 19.1728 116.669 19.3634 117.826 19.3981V19.9049H109.743V19.4111C110.925 19.3764 111.679 19.1902 111.995 18.8523C112.311 18.5144 112.48 17.7477 112.48 16.5348V5.8872L103.817 16.916C103.796 17.4522 103.85 17.9887 103.977 18.5101C104.037 18.6581 104.127 18.7916 104.243 18.9015C104.359 19.0114 104.497 19.095 104.648 19.1468C105.255 19.3441 105.891 19.4335 106.528 19.4111V19.9179H98.4712V19.4111C99.6321 19.3764 100.364 19.1902 100.689 18.8609C101.014 18.5317 101.17 17.7563 101.17 16.5348V4.73494C101.17 3.51338 101.01 2.73799 100.689 2.40877C100.364 2.07955 99.6321 1.89762 98.4712 1.85863V1.36047H106.528V1.85863C105.373 1.89906 104.631 2.08244 104.302 2.40877C103.973 2.7351 103.811 3.51049 103.817 4.73494V15.4258L112.48 4.41872Z" fill="white"/>
<path d="M124.145 18.5752C125.179 18.8155 126.237 18.939 127.299 18.9434C128.962 18.9434 130.227 18.5709 131.102 17.8301C131.515 17.4998 131.847 17.0794 132.072 16.6011C132.297 16.1228 132.41 15.5994 132.402 15.0708C132.396 14.3367 132.191 13.6181 131.808 12.9915C131.35 12.2743 130.674 11.722 129.881 11.4147C128.83 11.0019 127.708 10.8059 126.58 10.8386C126.012 10.8386 125.527 10.8386 125.12 10.8689C124.792 10.88 124.465 10.9118 124.141 10.9642L124.145 18.5752ZM124.145 9.70367C124.531 9.77419 124.92 9.82192 125.311 9.84662C125.744 9.87695 126.229 9.89427 126.749 9.89427C127.778 9.94287 128.807 9.79588 129.781 9.46109C130.43 9.20079 130.978 8.73921 131.345 8.14423C131.696 7.55643 131.88 6.88397 131.878 6.19925C131.878 5.66528 131.759 5.13801 131.528 4.65657C131.297 4.17514 130.96 3.75189 130.543 3.41824C129.651 2.65295 128.351 2.27031 126.645 2.27031C125.808 2.2597 124.973 2.36021 124.163 2.5692L124.145 9.70367ZM131.366 10.4574C132.434 10.624 133.437 11.0726 134.273 11.7569C134.701 12.1464 135.041 12.6224 135.271 13.1534C135.502 13.6844 135.616 14.2582 135.607 14.8369C135.602 15.788 135.299 16.7136 134.741 17.4836C134.143 18.3347 133.298 18.9807 132.319 19.3333C131.297 19.7231 129.735 19.9166 127.632 19.9137H118.804V19.4112H119.506C119.824 19.4418 120.144 19.3915 120.437 19.265C120.73 19.1385 120.987 18.94 121.182 18.6878C121.399 18.3716 121.499 17.6915 121.499 16.6519V4.6398C121.499 3.48754 121.369 2.76413 121.1 2.4739C120.894 2.26308 120.645 2.09962 120.37 1.99488C120.095 1.89015 119.8 1.84666 119.506 1.86745H118.804V1.36063H126.874C128.091 1.33424 129.308 1.44467 130.5 1.68985C131.708 1.92051 132.811 2.52697 133.654 3.42257C134.362 4.21421 134.749 5.24121 134.741 6.30321C134.746 7.21093 134.441 8.09314 133.875 8.80266C133.231 9.6016 132.354 10.18 131.366 10.4574Z" fill="white"/>
<path d="M147.892 12.6883L144.726 5.18565L141.477 12.6883H147.892ZM148.282 13.6976H141.048L139.779 16.6303C139.526 17.1389 139.367 17.6893 139.311 18.2547C139.315 18.4027 139.355 18.5476 139.426 18.6772C139.498 18.8069 139.599 18.9175 139.722 18.9998C139.987 19.2163 140.589 19.355 141.477 19.4329V19.9354H135.594V19.4113C136.137 19.3649 136.659 19.18 137.11 18.8741C137.578 18.4381 138.097 17.5486 138.665 16.2057L145.232 0.92749H145.713L152.211 16.3703C152.731 17.6092 153.207 18.415 153.632 18.7875C154.142 19.1859 154.769 19.4051 155.417 19.4113V19.9138H148.052V19.4113C148.582 19.4343 149.106 19.305 149.564 19.0387C149.686 18.9521 149.785 18.8377 149.853 18.7052C149.922 18.5726 149.958 18.4256 149.958 18.2763C149.885 17.6144 149.699 16.9698 149.408 16.3703L148.282 13.6976Z" fill="white"/>
<path d="M56.0495 28.274C55.286 29.3369 54.8947 30.6221 54.9363 31.9301C54.9102 33.2266 55.3003 34.4973 56.0495 35.5558H55.4387C54.6564 34.5117 54.2489 33.2343 54.2822 31.9301C54.2522 30.6169 54.659 29.331 55.4387 28.274H56.0495Z" fill="white"/>
<path d="M58.0208 31.4624C58.0242 32.0059 57.9498 32.5471 57.7999 33.0695C57.7164 33.35 57.6016 33.6203 57.4577 33.8752H59.4373V30.752H58.0295L58.0208 31.4624ZM60.1867 30.1628V33.8925H60.6199L60.5766 35.8462H59.9658L59.9311 34.4686H56.9682L56.9335 35.8462H56.3227L56.2881 33.8925H56.652C56.8371 33.6259 56.9829 33.3342 57.0851 33.0262C57.2558 32.4647 57.3391 31.8803 57.3321 31.2934V30.1542L60.1867 30.1628Z" fill="white"/>
<path d="M64.237 31.8911C64.237 31.393 64.0334 30.6176 63.1584 30.6176C62.3743 30.6176 62.0278 31.3497 61.9671 31.8911H64.237ZM61.9584 32.4543C61.9397 32.6533 61.9645 32.8541 62.0312 33.0426C62.0979 33.2312 62.2048 33.4029 62.3446 33.5459C62.4843 33.689 62.6535 33.7999 62.8404 33.8709C63.0273 33.942 63.2275 33.9715 63.4269 33.9574C63.8329 33.97 64.2366 33.8931 64.6095 33.7321L64.7438 34.2953C64.2917 34.4849 63.8044 34.5765 63.3143 34.5639C62.0148 34.5639 61.2134 33.6975 61.2134 32.398C61.2134 31.0984 61.9758 30.0718 63.2233 30.0718C64.6182 30.0718 64.9864 31.3107 64.9864 32.1077C64.9861 32.2293 64.9789 32.3508 64.9647 32.4716L61.9584 32.4543Z" fill="white"/>
<path d="M66.7057 30.1542V31.8912H68.7373V30.1542H69.5084V34.473H68.7373V32.5193H66.7057V34.473H65.939V30.1542H66.7057Z" fill="white"/>
<path d="M71.263 32.3243C71.263 33.2686 71.8001 33.9834 72.5625 33.9834C73.3249 33.9834 73.8621 33.2773 73.8621 32.3026C73.8621 31.5706 73.4982 30.6436 72.5625 30.6436C71.6269 30.6436 71.263 31.5099 71.263 32.3243ZM74.6548 32.2767C74.6548 33.8751 73.5589 34.5725 72.5236 34.5725C71.367 34.5725 70.4746 33.7061 70.4746 32.3503C70.4746 30.8991 71.4103 30.0544 72.5929 30.0544C73.7754 30.0544 74.6548 30.9555 74.6548 32.2767Z" fill="white"/>
<path d="M78.6878 34.3126C78.3018 34.4876 77.8813 34.5735 77.4576 34.5638C77.1682 34.5764 76.8794 34.5274 76.6105 34.4199C76.3415 34.3125 76.0984 34.1491 75.8973 33.9407C75.6962 33.7322 75.5417 33.4834 75.444 33.2107C75.3463 32.938 75.3077 32.6477 75.3307 32.359C75.3109 32.0518 75.3569 31.7439 75.4655 31.4559C75.5742 31.1679 75.7429 30.9064 75.9606 30.6887C76.1782 30.471 76.4398 30.3023 76.7278 30.1937C77.0158 30.085 77.3237 30.0391 77.6308 30.0588C78.001 30.055 78.3676 30.1319 78.7051 30.284L78.5275 30.8905C78.251 30.747 77.9422 30.6768 77.6308 30.6869C76.6475 30.6869 76.1147 31.419 76.1147 32.3243C76.0946 32.5305 76.1182 32.7386 76.184 32.935C76.2497 33.1315 76.3562 33.3118 76.4964 33.4643C76.6367 33.6168 76.8075 33.738 76.9977 33.82C77.188 33.9019 77.3934 33.9429 77.6005 33.9401C77.9305 33.9414 78.2565 33.8673 78.5535 33.7235L78.6878 34.3126Z" fill="white"/>
<path d="M80.0088 30.1542L80.9444 32.7056C81.0397 32.9915 81.148 33.3294 81.2217 33.572C81.304 33.312 81.3906 32.9828 81.4946 32.6709L82.3609 30.1368H83.184L82.0187 33.2167C81.4599 34.6982 81.0787 35.4563 80.5502 35.9241C80.2829 36.1742 79.9541 36.349 79.5972 36.4309L79.4023 35.7682C79.6525 35.6864 79.8837 35.5553 80.0824 35.3826C80.3641 35.1479 80.5879 34.8515 80.7365 34.5163C80.7676 34.4567 80.7881 34.3923 80.7972 34.3257C80.7922 34.2553 80.7746 34.1863 80.7452 34.1221L79.1641 30.1412L80.0088 30.1542Z" fill="white"/>
<path d="M83.8895 30.1542H84.8425L85.6222 32.3201C85.7305 32.645 85.9125 33.1864 86.0078 33.5113C86.1074 33.1864 86.3456 32.502 86.5103 32.0298L87.199 30.1455H88.1607L88.4639 34.4773H87.7232L87.6235 32.4154C87.5975 31.9519 87.5629 31.3974 87.5456 30.8689H87.5196C87.4026 31.2631 87.29 31.614 87.0517 32.2724L86.2287 34.4383H85.6612L84.9032 32.3027C84.7689 31.8956 84.5826 31.2674 84.47 30.8646H84.4353C84.4137 31.3757 84.3877 31.9475 84.3617 32.4197L84.2577 34.4643H83.543L83.8895 30.1542Z" fill="white"/>
<path d="M91.7524 32.2679C90.8861 32.2679 89.9417 32.4022 89.9417 33.2425C89.9328 33.3417 89.9454 33.4417 89.9787 33.5355C90.0121 33.6293 90.0654 33.7148 90.135 33.786C90.2046 33.8573 90.2888 33.9126 90.3818 33.9481C90.4748 33.9837 90.5745 33.9986 90.6738 33.9919C90.9004 33.9972 91.1227 33.9299 91.3082 33.7997C91.4937 33.6695 91.6327 33.4834 91.7048 33.2685C91.733 33.1876 91.7491 33.1029 91.7524 33.0173V32.2679ZM91.8651 34.4728L91.8044 33.9313H91.7784C91.6279 34.1332 91.4316 34.2966 91.2057 34.408C90.9798 34.5195 90.7308 34.5758 90.4789 34.5724C90.3104 34.5826 90.1415 34.5578 89.983 34.4997C89.8245 34.4415 89.6797 34.3513 89.5577 34.2345C89.4357 34.1178 89.3391 33.9772 89.274 33.8214C89.2089 33.6656 89.1767 33.498 89.1794 33.3292C89.1794 32.2895 90.0977 31.7134 91.7481 31.7264V31.6354C91.7703 31.5017 91.7609 31.3646 91.7205 31.2352C91.68 31.1058 91.6098 30.9876 91.5154 30.8903C91.4211 30.793 91.3051 30.7191 91.177 30.6748C91.0489 30.6304 90.9122 30.6167 90.7778 30.6348C90.3842 30.6368 89.9989 30.7478 89.6645 30.9554L89.4912 30.4355C89.9141 30.1795 90.4004 30.0474 90.8947 30.0543C92.1943 30.0543 92.5192 30.9554 92.5192 31.8217V33.4375C92.5146 33.784 92.5393 34.1303 92.5928 34.4728H91.8651Z" fill="white"/>
<path d="M95.4646 30.7303C95.2676 30.729 95.0744 30.7843 94.9078 30.8894C94.7412 30.9946 94.6082 31.1453 94.5246 31.3237C94.3765 31.6066 94.3034 31.9228 94.3123 32.2421C94.3123 32.9568 94.6546 33.9748 95.5036 33.9748C96.3526 33.9748 96.6818 33.1344 96.6818 32.3374C96.6818 31.6356 96.4046 30.7216 95.4863 30.7216L95.4646 30.7303ZM97.0154 28.677C96.7235 28.7663 96.4252 28.8329 96.123 28.8763C95.8266 28.8953 95.5376 28.9775 95.2754 29.1171C95.0132 29.2568 94.7838 29.4509 94.6026 29.6863C94.3323 30.1175 94.1717 30.6083 94.1347 31.1158H94.1607C94.2872 30.8271 94.4951 30.5815 94.759 30.4091C95.0229 30.2368 95.3313 30.1451 95.6465 30.1455C96.6992 30.1455 97.4659 30.8992 97.4659 32.281C97.4659 33.6629 96.7425 34.5639 95.4863 34.5639C93.9831 34.5639 93.4893 33.1084 93.4893 31.6703C93.4404 30.8219 93.6734 29.9812 94.1521 29.2791C94.3679 28.9882 94.6434 28.7469 94.9602 28.5713C95.277 28.3957 95.6277 28.29 95.9888 28.2611C96.3497 28.2119 96.706 28.1337 97.0544 28.0272L97.0154 28.677Z" fill="white"/>
<path d="M97.9595 35.5558C98.714 34.4902 99.1045 33.2094 99.0727 31.9041C99.1057 30.6053 98.7149 29.3311 97.9595 28.274H98.5616C99.352 29.3175 99.7616 30.6 99.7225 31.9084C99.7579 33.2197 99.3505 34.5046 98.5659 35.5558H97.9595Z" fill="white"/>
<path d="M123.344 1.35205L122.911 19.9138L122.365 1.35638L123.344 1.35205Z" fill="#E5C03C"/>
<path d="M131.011 2.71637V2.55176C131.475 2.72053 131.912 2.95385 132.311 3.24485C132.784 3.60173 133.173 4.05878 133.45 4.58337C133.714 5.0732 133.853 5.62095 133.853 6.17747C133.858 6.98005 133.583 7.75936 133.077 8.38236C132.546 9.05023 131.828 9.54604 131.016 9.80752V9.66457C131.414 9.50456 131.771 9.25567 132.06 8.93683C132.35 8.60037 132.559 8.20168 132.67 7.77157C132.802 7.29025 132.867 6.79335 132.865 6.29443C132.873 5.78398 132.816 5.27463 132.696 4.7783C132.633 4.4746 132.523 4.18241 132.371 3.91194C132.232 3.68036 132.06 3.47023 131.86 3.28816C131.607 3.05817 131.322 2.86429 131.016 2.71203" fill="#E5C03C"/>
<path d="M131.592 11.8176V11.6573C132.056 11.8225 132.494 12.0545 132.891 12.3461C133.363 12.7052 133.752 13.1618 134.031 13.6846C134.296 14.1759 134.436 14.7249 134.438 15.2831C134.438 16.0857 134.159 16.8635 133.65 17.4836C133.117 18.1538 132.398 18.6512 131.583 18.9131V18.7702C131.994 18.6134 132.36 18.3586 132.649 18.0278C132.938 17.6971 133.142 17.3005 133.242 16.8728C133.374 16.3915 133.439 15.8946 133.437 15.3957C133.442 14.8854 133.385 14.3763 133.268 13.8796C133.206 13.5761 133.098 13.2839 132.948 13.0132C132.805 12.7832 132.631 12.5734 132.432 12.3894C132.171 12.159 131.879 11.9652 131.566 11.8133" fill="#E5C03C"/>
</svg>
