<svg width="186" height="32" viewBox="0 0 186 32" fill="none" xmlns="http://www.w3.org/2000/svg">
<path d="M8.53139 12.5676H20.7947C19.7239 8.69187 16.4636 5.88007 12.3047 5.88007C9.30263 5.88007 6.73078 7.02949 4.45851 9.04651L0.815852 4.51534C3.50562 2.00119 6.86145 0 12.2633 0C21.4799 0 27.9111 6.94399 27.9111 15.4205C27.9111 24.0649 21.3524 30.8411 12.5214 30.8411C6.73078 30.8411 3.08813 29.0964 0 25.816L4.07289 21.4273C6.47583 23.5994 8.78953 24.9642 12.3047 24.9642C16.6357 24.9642 19.8513 22.0257 20.8393 18.0202H8.53139V12.5676Z" fill="white"/>
<path d="M32.9272 0.509766H45.1905C52.3515 0.509766 56.6826 4.72746 56.6826 10.9052C56.6826 17.808 51.2648 21.3861 44.5468 21.3861H39.5178V30.3313H32.9272V0.509766ZM44.7635 15.5503C48.0651 15.5503 49.9932 13.5903 49.9932 10.9495C49.9932 8.00789 47.9345 6.43417 44.6328 6.43417H39.5178V15.5503H44.7635Z" fill="white"/>
<path d="M68.0026 0.297729H74.0896L86.952 30.3314H80.0491L77.3052 23.6439H64.6149L61.8709 30.3314H55.1338L68.0026 0.297729ZM74.9469 17.8493L70.96 8.17899L66.9732 17.8493H74.9469Z" fill="white"/>
<path d="M93.0263 3.67939H96.3184C96.1911 3.17363 95.8981 2.72429 95.4856 2.40212C95.0731 2.07995 94.5644 1.90326 94.0397 1.89986C93.2551 1.9061 92.5021 2.2083 91.9332 2.74529L90.9548 1.51988C91.3567 1.12461 91.8349 0.814236 92.3607 0.607449C92.8865 0.400661 93.449 0.301738 94.0142 0.316637C94.5659 0.300808 95.1151 0.395937 95.6289 0.59631C96.1426 0.796684 96.6103 1.09817 97.0038 1.48265C97.3973 1.86713 97.7085 2.32667 97.9188 2.83368C98.1291 3.34068 98.234 3.88469 98.2273 4.433C98.2403 4.97813 98.1422 5.52024 97.9389 6.02672C97.7356 6.5332 97.4312 6.99359 97.0442 7.3802C96.6572 7.76681 96.1955 8.07164 95.6868 8.27638C95.1782 8.48111 94.6331 8.58151 94.0844 8.57154C92.5291 8.57154 91.5539 8.1029 90.7253 7.22263L91.8185 6.04472C92.1028 6.34317 92.4452 6.58123 92.8248 6.74451C93.2044 6.90778 93.6134 6.99288 94.027 6.99465C94.5663 6.99353 95.0887 6.80727 95.5057 6.4674C95.9227 6.12753 96.2087 5.65493 96.3152 5.12962H93.0263V3.67939Z" fill="white"/>
<path d="M103.081 8.76793V7.91616C100.598 7.91616 99.0911 6.38361 99.0911 4.36026C99.0911 2.3369 100.608 0.877176 103.081 0.877176V0.13623H104.85V0.867677C107.313 0.867677 108.843 2.34324 108.843 4.35076C108.843 6.35828 107.339 7.91616 104.85 7.91616V8.78377L103.081 8.76793ZM103.081 2.43506C101.781 2.43506 100.908 3.20134 100.908 4.37925C100.908 5.55717 101.781 6.33295 103.081 6.33295V2.43506ZM104.85 6.33295C106.15 6.33295 107.014 5.57933 107.014 4.37925C107.014 3.17918 106.153 2.43506 104.85 2.43506V6.33295Z" fill="white"/>
<path d="M113.575 8.76793V7.91616C111.09 7.91616 109.582 6.38361 109.582 4.36026C109.582 2.3369 111.102 0.877176 113.575 0.877176V0.13623H115.347V0.867677C117.808 0.867677 119.341 2.34324 119.341 4.35076C119.341 6.35828 117.833 7.91616 115.347 7.91616V8.78377L113.575 8.76793ZM113.575 2.43506C112.275 2.43506 111.402 3.20134 111.402 4.37925C111.402 5.55717 112.275 6.33295 113.575 6.33295V2.43506ZM115.347 6.33295C116.648 6.33295 117.511 5.57933 117.511 4.37925C117.511 3.17918 116.641 2.43506 115.347 2.43506V6.33295Z" fill="white"/>
<path d="M120.558 0.446533H126.636V2.01075H122.32V3.63513H126.116V5.19935H122.32V6.88073H126.693V8.44812H120.558V0.446533Z" fill="white"/>
<path d="M128.038 0.446533H129.81V3.92961L133.076 0.446533H135.218L131.939 3.84095L135.368 8.44812H133.239L130.74 5.04103L129.81 5.99096V8.43862H128.038V0.446533Z" fill="white"/>
<path d="M138.083 2.06775H135.632V0.446533H142.306V2.06775H139.855V8.44812H138.083V2.06775Z" fill="white"/>
<path d="M150.372 8.44812H148.622V3.20133L145.101 8.44812H143.431V0.446533H145.18V5.69965L148.724 0.446533H150.372V8.44812Z" fill="white"/>
<path d="M152.073 0.446533H155.812C156.733 0.446533 157.456 0.696682 157.918 1.15265C158.101 1.33286 158.244 1.54843 158.339 1.78594C158.433 2.02345 158.478 2.27782 158.47 2.53321C158.48 2.89161 158.385 3.24521 158.197 3.5514C158.01 3.8576 157.737 4.10331 157.412 4.25892C158.342 4.61356 158.919 5.15186 158.919 6.25061C158.919 7.7135 157.721 8.44495 155.904 8.44495H152.08L152.073 0.446533ZM155.433 3.67946C156.216 3.67946 156.707 3.42932 156.707 2.81186C156.707 2.28623 156.293 1.98859 155.544 1.98859H153.794V3.67946H155.433ZM155.904 6.90289C156.688 6.90289 157.16 6.63058 157.16 6.01313C157.16 5.47483 156.755 5.14236 155.847 5.14236H153.798V6.90289H155.904Z" fill="white"/>
<path d="M160.149 0.446533H161.921V3.61297H165.191V0.446533H166.963V8.44812H165.191V5.23418H161.921V8.44812H160.149V0.446533Z" fill="white"/>
<path d="M168.665 0.446533H170.437V3.1665H172.151C174.016 3.1665 175.096 4.19559 175.096 5.75981C175.096 7.40636 173.923 8.44812 172.037 8.44812H168.665V0.446533ZM170.437 4.67373V6.85857H172.011C172.887 6.85857 173.337 6.48176 173.337 5.73765C173.337 5.0632 172.887 4.67373 172.002 4.67373H170.437ZM175.992 0.446533H177.767V8.44812H175.992V0.446533Z" fill="white"/>
<path d="M179.468 0.446533H185.543V2.01075H181.227V3.63513H185.026V5.19935H181.227V6.88073H185.6V8.44812H179.468V0.446533Z" fill="white"/>
<path d="M91.3691 11.5291H94.6517C96.5638 11.5291 97.7334 12.6595 97.7334 14.3155C97.7334 16.1679 96.2834 17.1305 94.4796 17.1305H93.1315V19.5306H91.3691V11.5291ZM94.5561 15.5631C95.442 15.5631 95.9583 15.0375 95.9583 14.3282C95.9583 13.5397 95.407 13.1154 94.521 13.1154H93.1506V15.5631H94.5561Z" fill="white"/>
<path d="M98.8264 11.5291H104.901V13.0933H100.586V14.7177H104.381V16.2819H100.586V17.9633H104.958V19.5465H98.8264V11.5291Z" fill="white"/>
<path d="M117.362 19.5306H106.303V11.5291H108.075V17.9411H110.943V11.5291H112.715V17.9411H115.583V11.5291H117.355L117.362 19.5306Z" fill="white"/>
<path d="M119.063 11.5291H125.138V13.0933H120.826V14.7177H124.609V16.2819H120.826V17.9633H125.195V19.5465H119.063V11.5291Z" fill="white"/>
<path d="M126.543 11.5291H128.315V14.6955H131.582V11.5291H133.354V19.5306H131.582V16.3167H128.315V19.5306H126.543V11.5291Z" fill="white"/>
<path d="M141.993 19.5306H140.247V14.2839L136.719 19.5306H135.049V11.5291H136.799V16.7822L140.343 11.5354H141.987L141.993 19.5306Z" fill="white"/>
<path d="M150.072 19.5307H148.3V16.969H146.917L145.19 19.5307H143.122L145.088 16.6809C144.563 16.5104 144.11 16.1731 143.798 15.7209C143.485 15.2687 143.332 14.727 143.361 14.1794C143.361 12.5202 144.511 11.5386 146.398 11.5386H150.072V19.5307ZM148.3 15.4143V13.1155H146.538C145.677 13.1155 145.145 13.5049 145.145 14.2839C145.145 14.9583 145.642 15.4143 146.506 15.4143H148.3Z" fill="white"/>
<path d="M94.1321 22.2727H95.7638L99.2152 30.3313H97.3636L96.6275 28.5359H93.2206L92.4845 30.3313H90.6807L94.1321 22.2727ZM95.9965 26.9812L94.9256 24.3816L93.8548 26.9749L95.9965 26.9812Z" fill="white"/>
<path d="M100.229 22.3297H102.141L104.26 25.7115L106.376 22.3297H108.288V30.3313H106.529V25.1067L104.263 28.5264H104.212L101.982 25.1415V30.3313H100.229V22.3297Z" fill="white"/>
<path d="M109.133 28.7417H109.895C110.491 27.358 110.781 25.9996 110.781 23.2669V22.317H116.641V28.7417H117.598L117.365 32H115.883V30.3313H110.848L110.733 32H109.139L109.133 28.7417ZM112.498 23.9192V24.7298C112.535 26.1022 112.289 27.4675 111.775 28.7417H114.879V23.9192H112.498Z" fill="white"/>
<path d="M123.206 30.3313V28.2066L122.136 27.0604L119.87 30.3313H117.75L120.937 25.7938L117.868 22.3297H119.972L123.206 26.0661V22.3297H124.966V26.0661L128.2 22.3297H130.304L127.232 25.7938L130.419 30.3313H128.302L126.024 27.0604L124.966 28.2066V30.3313H123.206Z" fill="white"/>
<path d="M131.26 22.3297H137.334V23.8939H133.019V25.5183H136.818V27.1015H133.019V28.7797H137.391V30.363H131.26V22.3297Z" fill="white"/>
<path d="M138.74 22.3297H140.511V25.4961H143.778V22.3297H145.55V30.3313H143.778V27.1205H140.511V30.3313H138.74V22.3297Z" fill="white"/>
</svg>
