<svg width="145" height="37" viewBox="0 0 145 37" fill="none" xmlns="http://www.w3.org/2000/svg">
<path d="M37.1506 25.2908C36.3209 27.0351 35.8418 28.9254 35.7403 30.8543C35.8392 32.7878 36.3185 34.6828 37.1506 36.4308H35.7015C34.5953 34.4383 33.8384 33.015 33.8384 30.8543C33.8384 28.6936 34.5953 27.2833 35.7015 25.2908H37.1506Z" fill="white"/>
<path d="M40.5344 34.1019H38.626V27.7103H44.9011V34.1019H42.9927V28.9912H40.5344V34.1019Z" fill="white"/>
<path d="M48.8278 30.2268H51.0403C51.0561 30.0335 51.0306 29.8391 50.9654 29.6565C50.9001 29.4738 50.7968 29.3072 50.6621 29.1676C50.5274 29.028 50.3646 28.9188 50.1844 28.8471C50.0042 28.7754 49.8108 28.7429 49.617 28.7519C49.4338 28.7285 49.2477 28.7429 49.0703 28.7943C48.8928 28.8456 48.7278 28.9328 48.5853 29.0504C48.4429 29.168 48.326 29.3135 48.242 29.478C48.158 29.6426 48.1085 29.8225 48.0968 30.0069H46.2078C46.2078 29.0365 46.79 27.4774 49.52 27.4774C50.3739 27.4774 53.0263 27.5745 53.0263 30.9902C53.0263 34.2701 50.1993 34.3477 49.5459 34.3477C46.887 34.3477 46.2078 32.7887 46.1431 31.6889H48.0321C48.0395 31.879 48.0848 32.0657 48.1652 32.2381C48.2457 32.4104 48.3598 32.565 48.5008 32.6927C48.6418 32.8205 48.8068 32.9188 48.9863 32.9819C49.1657 33.045 49.356 33.0717 49.5459 33.0604C49.8564 33.0604 50.9756 33.0604 51.0403 31.5142H48.8278V30.2268Z" fill="white"/>
<path d="M56.203 34.1019H54.2881V27.7103H59.1594V28.9912H56.203V34.1019Z" fill="white"/>
<path d="M65.648 28.8424C66.9418 28.8424 67.7246 29.457 67.7246 30.7831C67.7246 32.4199 66.6572 32.9956 65.648 32.9633V28.8424ZM63.7978 36.4308H65.7386V34.2765C69.012 34.2118 69.743 32.4005 69.743 30.8672C69.743 29.6963 69.2384 27.5227 65.7386 27.555V25.2908H63.7978V27.555C62.4522 27.555 59.7998 27.8849 59.7998 30.8543C59.7998 31.8959 60.0909 34.186 63.7978 34.2765V36.4308ZM63.8625 32.9956C63.1315 32.9956 61.7859 32.6916 61.7859 30.8026C61.7618 30.5516 61.7915 30.2984 61.8731 30.0599C61.9546 29.8214 62.0861 29.603 62.2588 29.4193C62.4314 29.2356 62.6413 29.0909 62.8743 28.9947C63.1074 28.8986 63.3582 28.8533 63.6102 28.8618H63.8625V32.9956Z" fill="white"/>
<path d="M75.5001 27.7103H77.525V34.1019H75.6166V29.9487L73.0095 34.1019H70.9717V27.7103H72.8866V31.8636L75.5001 27.7103Z" fill="white"/>
<path d="M78.5085 32.8016C78.6141 32.8081 78.72 32.8081 78.8255 32.8016C79.6277 32.8016 79.9188 32.4135 79.9706 30.4145L80.0288 27.6844H85.4824V34.076H83.5416V28.9654H81.8273V30.4015C81.7626 33.7849 80.7663 34.1731 79.2396 34.1731C78.9899 34.1718 78.7409 34.148 78.4956 34.1019L78.5085 32.8016Z" fill="white"/>
<path d="M88.9758 34.1019H87.0674V27.7103H91.9322V28.9912H88.9758V34.1019Z" fill="white"/>
<path d="M92.877 27.7102V36.4307H94.8177V33.4484C95.0568 33.7294 95.3543 33.9549 95.6895 34.1091C96.0247 34.2633 96.3895 34.3425 96.7585 34.3411C98.5828 34.3411 99.702 32.9438 99.702 30.9125C99.702 28.8811 98.5957 27.4708 96.7973 27.4708C96.3986 27.463 96.0036 27.5497 95.6449 27.724C95.2862 27.8983 94.9739 28.1552 94.7336 28.4736H94.6948V27.7102H92.877ZM94.7013 30.893C94.7013 29.1011 95.6199 28.7517 96.2021 28.7517C96.7844 28.7517 97.6836 29.1011 97.6836 30.893C97.6836 31.9993 97.2954 33.0538 96.2021 33.0538C95.1088 33.0538 94.7013 31.9993 94.7013 30.893Z" fill="white"/>
<path d="M102.885 29.7739C102.882 29.6265 102.912 29.4803 102.971 29.3454C103.031 29.2106 103.119 29.0904 103.23 28.9931C103.341 28.8958 103.472 28.8239 103.613 28.7822C103.754 28.7405 103.903 28.7301 104.049 28.7517C104.174 28.7325 104.301 28.7398 104.423 28.7731C104.545 28.8063 104.658 28.8648 104.756 28.9447C104.853 29.0247 104.933 29.1242 104.989 29.237C105.046 29.3498 105.078 29.4732 105.084 29.5992V29.7739C105.045 30.4208 104.541 30.2785 103.143 30.492C101.985 30.6796 100.763 31.0289 100.763 32.4909C100.763 33.0214 100.95 34.3411 102.988 34.3411C103.387 34.3624 103.785 34.2958 104.155 34.146C104.525 33.9962 104.858 33.7669 105.129 33.4743L105.298 34.1212H107.31V34.0047C106.947 33.9206 106.921 33.4937 106.934 32.8015V29.8774C106.934 29.1334 106.889 27.4902 104.004 27.4902C103.312 27.4902 101.086 27.5679 100.996 29.7933L102.885 29.7739ZM105.097 31.4559C105.121 31.6546 105.102 31.856 105.043 32.0471C104.984 32.2382 104.885 32.4148 104.754 32.5654C104.622 32.716 104.46 32.8373 104.278 32.9214C104.097 33.0055 103.9 33.0506 103.7 33.0538C103.344 33.0538 102.716 32.9179 102.716 32.3163C102.716 31.5982 103.434 31.4559 103.836 31.3976C104.285 31.3664 104.724 31.25 105.129 31.0548L105.097 31.4559Z" fill="white"/>
<path d="M114.833 31.6823C114.762 32.6786 114.115 34.3411 111.676 34.3411C109.587 34.3411 108.267 33.1314 108.267 30.9189C108.267 29.3922 108.946 27.4708 111.793 27.4708C113.979 27.4708 114.659 28.8164 114.769 29.9874H112.931C112.796 28.9523 112.284 28.7517 111.715 28.7517C111.301 28.7517 110.253 28.8682 110.253 30.7766C110.253 32.905 111.301 33.0538 111.689 33.0538C111.863 33.0489 112.033 33.0092 112.191 32.9371C112.349 32.8649 112.49 32.7618 112.607 32.6339C112.724 32.506 112.815 32.3558 112.872 32.1923C112.93 32.0288 112.955 31.8554 112.944 31.6823H114.833Z" fill="white"/>
<path d="M115.455 28.9912V27.7103H121.594V28.9912H119.478V34.1019H117.564V28.9912H115.455Z" fill="white"/>
<path d="M127.067 27.7103H129.092V34.1019H127.177V29.9487L124.576 34.1019H122.532V27.7103H124.447V31.8636L127.067 27.7103Z" fill="white"/>
<path d="M132.591 29.6964H132.552L132.591 30.0198V34.1019H130.676V27.7103H133.219L134.952 32.2H134.965L136.706 27.7103H139.248V34.1019H137.333V30.0198L137.372 29.6964H137.333L135.593 34.1019H134.325L132.591 29.6964Z" fill="white"/>
<path d="M140.729 36.4308C141.563 34.6838 142.038 32.7877 142.127 30.8543C142.026 28.9267 141.552 27.0371 140.729 25.2908H142.166C143.699 27.7103 144.035 29.4699 144.035 30.8543C144.035 32.2387 143.699 34.0113 142.166 36.4308H140.729Z" fill="white"/>
<path d="M24.3029 16.1886C22.3621 18.6405 19.2504 20.2901 16.0611 21.0405C8.78966 22.7484 2.02932 20.303 0.787226 15.7746C-0.0214279 12.8634 1.09775 8.69725 6.15022 6.27129C6.97241 5.91752 7.81238 5.60658 8.66675 5.33972C8.77025 5.59849 8.88023 5.87667 8.99021 6.16778C9.06137 6.34245 9.12606 6.52359 9.19075 6.69826C8.4546 6.89883 7.74619 7.19002 7.08179 7.56514C4.33236 9.13716 3.13556 11.893 3.69838 14.4807C4.18357 16.7708 6.15668 18.4593 8.94492 19.2292C8.94492 19.2292 11.662 20.2189 16.3845 19.3844C22.5238 18.2264 25.3962 14.209 24.3093 10.0105C24.1828 9.59451 23.9613 9.2136 23.6624 8.8978C23.1708 8.4773 25.6355 6.40714 26.0948 7.22874C27.2011 9.24067 26.9488 12.8634 24.2835 16.2145" fill="#83C3C6"/>
<path d="M17.7107 5.6178C17.5026 6.26826 17.0458 6.81009 16.4399 7.12516C15.834 7.44024 15.1281 7.50301 14.4761 7.2998C13.8595 7.00682 13.3837 6.48208 13.1523 5.83988C12.9208 5.19768 12.9525 4.49005 13.2405 3.87111C13.4486 3.22065 13.9054 2.67883 14.5113 2.36375C15.1172 2.04868 15.8231 1.9859 16.4751 2.18911C17.0916 2.48209 17.5675 3.00683 17.7989 3.64903C18.0303 4.29123 17.9986 4.99887 17.7107 5.6178Z" fill="white"/>
<path d="M8.95787 19.2162C10.5558 16.0915 11.041 11.3884 9.00963 6.16773C7.44407 2.18915 6.6613 1.37403 7.20471 0.97294C8.07806 0.326017 10.4393 3.92291 12.4965 7.50039C13.3505 8.96891 14.3403 9.86166 15.8605 8.98184C17.9824 7.75269 20.2596 5.74723 21.8575 4.72509C24.7622 2.90724 27.2981 1.92392 27.4793 2.70669C27.6087 3.25658 22.498 5.35908 19.0046 11.1167C17.8272 13.0575 16.4622 16.5638 16.3845 19.365C11.662 20.193 8.95787 19.2162 8.95787 19.2162Z" fill="white"/>
<path d="M50.4257 11.0584C50.6197 9.66103 51.3637 8.83944 52.5217 8.83944C53.8543 8.83944 54.6371 9.68044 54.6565 11.0584H50.4257ZM57.5742 12.4622C57.5742 8.87178 55.7822 6.724 52.774 6.724C49.6299 6.724 47.2622 9.31169 47.2622 12.7921C47.2622 16.4537 49.1383 18.6662 52.4376 18.7956C54.1945 18.7886 55.8958 18.1789 57.2572 17.0683L56.2997 15.3992C56.2997 15.3992 55.3293 16.4925 53.0651 16.3243C51.4413 16.2079 50.3674 15.0305 50.2833 13.0897H57.5742V12.4622Z" fill="white"/>
<path d="M85.9936 15.1278V15.076C85.9936 13.7822 87.0352 13.1935 89.5323 13.1029C89.5323 13.3293 89.5323 14.3579 89.5323 14.9466C89.5375 15.0769 89.5135 15.2067 89.462 15.3265C89.4105 15.4463 89.3328 15.553 89.2347 15.6389C88.7035 16.1716 87.9878 16.4797 87.2357 16.4993C87.0635 16.4927 86.8943 16.4518 86.7381 16.3789C86.5818 16.306 86.4418 16.2026 86.3261 16.0749C86.2104 15.9471 86.1213 15.7975 86.0642 15.6349C86.0072 15.4722 85.9831 15.2998 85.9936 15.1278ZM84.0011 8.55505L83.8588 8.64561L84.9844 10.4505L85.1332 10.3406C86.0111 9.62775 87.0851 9.19903 88.2126 9.1114C89.1247 9.1114 89.5064 9.53837 89.5064 10.6252V11.1686C86.9769 11.2333 85.075 11.8155 84.014 12.9347C83.7111 13.24 83.4722 13.6027 83.3111 14.0015C83.15 14.4002 83.0701 14.8271 83.076 15.2572V15.3283C83.1148 17.3855 84.6674 18.77 86.9575 18.77C88.0719 18.74 89.1361 18.3 89.9463 17.5343C90.1027 17.8684 90.3561 18.1476 90.6734 18.3357C90.9907 18.5237 91.3572 18.6119 91.7253 18.5888C92.5728 18.6245 93.4107 18.3987 94.1254 17.9419L93.7049 16.1111L93.4979 16.234C93.3071 16.3599 93.0782 16.4148 92.851 16.3893C92.5599 16.3375 92.3529 16.1499 92.3335 14.9919V14.5456V11.2592V10.8387C92.2752 7.94047 91.2725 6.86658 88.6136 6.86658C87.1322 6.86658 85.7607 7.37118 84.0205 8.55505" fill="white"/>
<path d="M36.4199 8.86539H42.5075V2.94604H45.755V18.5628H42.5075V11.5501H36.4199V18.5628H33.1724V2.94604H36.4199V8.86539Z" fill="white"/>
<path d="M69.9433 7.01526L65.9648 18.3623C64.6709 22.1274 63.7911 23.2983 61.3522 23.4665C60.4397 23.5568 59.5187 23.435 58.661 23.1107L59.6314 20.95C60.0523 21.0682 60.4881 21.1249 60.9252 21.1182C61.7856 21.0341 62.3679 20.8206 62.6525 19.2227L58.4346 7.01526H61.5592L64.2763 15.4253H64.3604L66.7217 7.01526H69.9433Z" fill="white"/>
<path d="M81.601 6.98938V18.5628H78.5734V9.42181H75.3388V12.9928C75.3388 17.4242 74.0902 18.6987 71.9683 18.8669C71.526 18.9447 71.0721 18.9273 70.637 18.8157C70.2019 18.7042 69.7956 18.5011 69.4453 18.22L70.2863 16.0398C70.6134 16.2397 71.0046 16.3068 71.3796 16.2274C71.9877 16.0981 72.3112 15.9687 72.3112 12.4365V6.98938H81.601Z" fill="white"/>
<path d="M108.726 18.5628V9.42181H105.278V6.99585H115.196V9.42181H111.76V18.5628H108.726Z" fill="white"/>
<path d="M119.478 14.3255L123.864 6.99585H127.112V18.5628H124.078V11.2073L119.691 18.5628H116.444V6.99585H119.478V14.3255Z" fill="white"/>
<path d="M136.816 14.8624H136.9L139.397 6.98938H143.615V18.5628H140.711V11.4467C140.711 10.7998 140.795 10.0881 140.795 10.0881H140.711L137.981 18.5434H135.755L133.019 10.0881H132.935C132.935 10.0881 133.019 10.8256 133.019 11.4467V18.5628H130.121V6.98938H134.313L136.816 14.8624Z" fill="white"/>
<path d="M102.962 15.5675C102.663 15.8571 102.3 16.0728 101.902 16.1974C101.504 16.3221 101.083 16.3523 100.672 16.2856C98.382 16.0786 98.272 13.8531 98.272 12.6046C98.272 11.1619 98.8413 9.0077 100.756 9.0077C101.535 8.93964 102.311 9.15565 102.943 9.6158L104.055 7.5133C103.034 6.86449 101.835 6.55018 100.627 6.61408C96.9652 6.6723 95.1279 9.35703 95.1279 13.0833C95.1279 15.5093 96.1177 18.8474 100.459 18.8474C101.154 18.8824 101.849 18.7766 102.503 18.5365C103.157 18.2964 103.755 17.9269 104.262 17.45L102.962 15.5675Z" fill="white"/>
</svg>
