<svg width="22" height="24" viewBox="0 0 22 24" fill="none" xmlns="http://www.w3.org/2000/svg">
<path fill-rule="evenodd" clip-rule="evenodd" d="M10.208 1.20003H11.4079V2.41631C11.2067 2.40515 11.0042 2.3995 10.8003 2.3995C10.6015 2.3995 10.4041 2.40487 10.208 2.41547V1.20003ZM13.2003 1.20003H12.6079V2.55014C14.3955 2.85143 16.0341 3.59199 17.4087 4.65696L18.0513 4.01438L17.6219 3.58492C17.3875 3.3506 17.3875 2.97069 17.6219 2.73637C17.8562 2.50205 18.2361 2.50205 18.4704 2.73637L20.1672 4.43322C20.4016 4.66754 20.4016 5.04744 20.1672 5.28176C19.9329 5.51609 19.553 5.51609 19.3187 5.28176L18.8999 4.86293L18.3175 5.44531C20.3421 7.40841 21.6005 10.1573 21.6005 13.1998C21.6005 19.1641 16.7646 24 10.8003 24C4.83595 24 0 19.1641 0 13.1998C0 7.84605 3.89647 3.40149 9.00793 2.54757V1.20003H8.40022C8.06884 1.20003 7.80021 0.931394 7.80021 0.600015C7.80021 0.268636 8.06884 0 8.40022 0H13.2003C13.5317 0 13.8004 0.268636 13.8004 0.600015C13.8004 0.931394 13.5317 1.20003 13.2003 1.20003ZM9.00793 3.76658V4.25591C9.00793 4.58729 9.27656 4.85592 9.60794 4.85592C9.93932 4.85592 10.208 4.58729 10.208 4.25591V3.61748C10.4039 3.60554 10.6014 3.59949 10.8004 3.59949C16.1019 3.59949 20.4006 7.89817 20.4006 13.1997C20.4006 18.5013 16.1019 22.8 10.8004 22.8C5.49882 22.8 1.20014 18.5013 1.20014 13.1997C1.20014 8.51074 4.56283 4.60626 9.00793 3.76658ZM10.8002 12.5997C11.1312 12.5997 11.4002 12.8687 11.4002 13.1997C11.4002 13.5308 11.1312 13.7998 10.8002 13.7998C10.4691 13.7998 10.2001 13.5308 10.2001 13.1997C10.2001 12.8687 10.4691 12.5997 10.8002 12.5997ZM12.6004 13.1998C12.6004 14.1936 11.7942 14.9998 10.8004 14.9998C9.80659 14.9998 9.00034 14.1936 9.00034 13.1998C9.00034 12.4164 9.50128 11.7496 10.2001 11.5023V6.60316C10.2001 6.27178 10.4688 6.00315 10.8002 6.00315C11.1315 6.00315 11.4002 6.27178 11.4002 6.60316V11.5021C12.0993 11.7493 12.6004 12.4162 12.6004 13.1998Z" fill="#1C88F8"/>
</svg>
